<svg xmlns="http://www.w3.org/2000/svg" viewBox="0 0 165.1 52.85"><defs><style>.cls-1{opacity:0;}</style></defs><g id="Capa_2" data-name="Capa 2"><g id="Capa_1-2" data-name="Capa 1"><g class="cls-1"><path d="M67.53,8.77v0A3.77,3.77,0,0,1,71.42,5a4.07,4.07,0,0,1,2.75.95.42.42,0,0,1,.18.33.44.44,0,0,1-.44.41.55.55,0,0,1-.29-.1,3.25,3.25,0,0,0-2.21-.83,2.93,2.93,0,0,0-3,3v0a3,3,0,0,0,3,3,3.26,3.26,0,0,0,2.29-.89.39.39,0,0,1,.27-.11.42.42,0,0,1,.42.39.39.39,0,0,1-.14.29,4.06,4.06,0,0,1-2.86,1.08A3.74,3.74,0,0,1,67.53,8.77Z"/><path d="M75,11.86l3.12-6.48A.56.56,0,0,1,78.68,5h0a.54.54,0,0,1,.54.36l3.13,6.47a.58.58,0,0,1,0,.21.4.4,0,0,1-.42.39.47.47,0,0,1-.43-.3l-.8-1.68H76.57l-.81,1.7a.42.42,0,0,1-.41.28.38.38,0,0,1-.4-.37A.41.41,0,0,1,75,11.86Zm5.44-2.14L78.68,6,76.91,9.72Z"/><path d="M83.26,11.53a.38.38,0,0,1-.17-.32.41.41,0,0,1,.42-.4.44.44,0,0,1,.27.09,3.62,3.62,0,0,0,2.43.87c1,0,1.71-.52,1.71-1.24v0c0-.67-.38-1.06-2-1.38S83.33,8.21,83.33,7V7c0-1.15,1.07-2,2.53-2a4.09,4.09,0,0,1,2.46.72.4.4,0,0,1-.23.73.4.4,0,0,1-.26-.08,3.38,3.38,0,0,0-2-.63c-1,0-1.64.52-1.64,1.18v0c0,.69.4,1.07,2.09,1.42s2.51,1,2.51,2.06v0c0,1.25-1.1,2.07-2.63,2.07A4.69,4.69,0,0,1,83.26,11.53Z"/><path d="M89.41,11.86l3.13-6.48A.56.56,0,0,1,93.09,5h0a.55.55,0,0,1,.54.36l3.12,6.47a.45.45,0,0,1,.06.21.4.4,0,0,1-.42.39.47.47,0,0,1-.43-.3l-.8-1.68H91l-.8,1.7a.42.42,0,0,1-.42.28.37.37,0,0,1-.39-.37A.49.49,0,0,1,89.41,11.86Zm5.45-2.14L93.09,6,91.32,9.72Z"/><path d="M100.71,5.52a.43.43,0,0,1,.43-.42h2.24c2.42,0,4.1,1.58,4.1,3.63v0c0,2.06-1.68,3.65-4.1,3.65h-2.24a.43.43,0,0,1-.43-.41Zm2.67,6.12a2.91,2.91,0,0,0,3.19-2.87v0a2.93,2.93,0,0,0-3.19-2.89h-1.8v5.78Z"/><path d="M108.75,12V5.52a.43.43,0,0,1,.43-.42H114a.39.39,0,0,1,.4.38.38.38,0,0,1-.4.37h-4.34v2.5h3.85a.38.38,0,1,1,0,.75h-3.85v2.55H114a.38.38,0,0,1,.39.38.37.37,0,0,1-.39.37h-4.84A.43.43,0,0,1,108.75,12Z"/><path d="M115.42,5.47a.42.42,0,0,1,.42-.42.44.44,0,0,1,.45.42v6.17h4a.39.39,0,0,1,.39.39.37.37,0,0,1-.39.37h-4.44a.42.42,0,0,1-.42-.41Z"/><path d="M67.51,17.88a1.84,1.84,0,0,1,1.89-1.8h9.66a1.64,1.64,0,1,1,0,3.27H71.3v3.48H78a1.64,1.64,0,1,1,0,3.27H71.3v4.67a1.9,1.9,0,0,1-3.79,0Z"/><path d="M81.85,25.43V17.74a1.9,1.9,0,0,1,3.79,0v7.59c0,2.66,1.41,4,3.72,4s3.72-1.33,3.72-3.92V17.74a1.9,1.9,0,0,1,3.8,0v7.57c0,5-2.93,7.38-7.57,7.38S81.85,30.24,81.85,25.43Z"/><path d="M103.28,19.4H99.63a1.66,1.66,0,1,1,0-3.32h11.09a1.66,1.66,0,1,1,0,3.32h-3.65V30.77a1.9,1.9,0,0,1-3.79,0Z"/><path d="M113.47,25.43V17.74a1.9,1.9,0,0,1,3.8,0v7.59c0,2.66,1.4,4,3.72,4s3.72-1.33,3.72-3.92V17.74a1.9,1.9,0,0,1,3.79,0v7.57c0,5-2.93,7.38-7.56,7.38S113.47,30.24,113.47,25.43Z"/><path d="M131.22,17.88a1.84,1.84,0,0,1,1.9-1.8h6a7.11,7.11,0,0,1,5,1.66,5,5,0,0,1,1.48,3.74v0a5,5,0,0,1-3.45,5l2.64,3a2,2,0,0,1,.61,1.37,1.72,1.72,0,0,1-1.8,1.66,2.3,2.3,0,0,1-1.87-.93l-3.69-4.44h-3v3.57a1.9,1.9,0,0,1-3.8,0ZM138.86,24c1.85,0,2.91-.93,2.91-2.31v-.05c0-1.54-1.14-2.33-3-2.33H135V24Z"/><path d="M146.77,24.3v0c0-4.65,3.87-8.46,9.19-8.46s9.14,3.76,9.14,8.41v.05c0,4.65-3.87,8.45-9.19,8.45S146.77,29,146.77,24.3Zm14.37,0v0a5.1,5.1,0,0,0-5.23-5.14,5,5,0,0,0-5.17,5.09v.05A5.1,5.1,0,0,0,156,29.4,5,5,0,0,0,161.14,24.3Z"/><path d="M160.76,36.7a.75.75,0,0,1-.76.73H68.23a.75.75,0,0,1-.77-.73h0a.75.75,0,0,1,.77-.73H160a.75.75,0,0,1,.76.73Z"/><path d="M67.34,43.72v0a2.89,2.89,0,0,1,3-2.9,3.27,3.27,0,0,1,2,.6.31.31,0,0,1,.13.25.32.32,0,0,1-.33.32.37.37,0,0,1-.21-.08,2.63,2.63,0,0,0-1.64-.51A2.25,2.25,0,0,0,68,43.68v0A2.22,2.22,0,0,0,70.38,46a2.82,2.82,0,0,0,1.71-.56V44.08H70.5a.29.29,0,1,1,0-.57h1.91a.33.33,0,0,1,.33.32v1.71a.44.44,0,0,1-.23.38,3.72,3.72,0,0,1-2.15.68A2.83,2.83,0,0,1,67.34,43.72Z"/><path d="M75.57,43.72v0a3,3,0,0,1,6,0v0a3,3,0,0,1-6,0Zm5.34,0v0a2.29,2.29,0,0,0-2.33-2.32,2.26,2.26,0,0,0-2.32,2.3v0A2.29,2.29,0,0,0,78.6,46,2.26,2.26,0,0,0,80.91,43.72Z"/><path d="M84.65,41.21a.33.33,0,0,1,.33-.32h1.73a2.89,2.89,0,0,1,3.15,2.79v0a2.9,2.9,0,0,1-3.15,2.81H85a.33.33,0,0,1-.33-.32Zm2.06,4.71a2.23,2.23,0,0,0,2.45-2.2v0a2.25,2.25,0,0,0-2.45-2.22H85.32v4.44Z"/><path d="M92.6,43.72v0a3,3,0,0,1,6,0v0a3,3,0,0,1-6,0Zm5.35,0v0a2.29,2.29,0,0,0-2.34-2.32,2.27,2.27,0,0,0-2.32,2.3v0a2.33,2.33,0,0,0,4.66,0Z"/><path d="M103.06,44.3l-2.2-2.92a.42.42,0,0,1-.08-.22.34.34,0,0,1,.35-.31.41.41,0,0,1,.32.19l2,2.68,2-2.68a.38.38,0,0,1,.31-.19.32.32,0,0,1,.33.31.54.54,0,0,1-.09.24l-2.2,2.89v1.94a.34.34,0,0,1-.67,0Z"/><path d="M112.89,43.72v0a2.9,2.9,0,0,1,3-2.9,3.12,3.12,0,0,1,2.11.73.32.32,0,0,1,.14.25.33.33,0,0,1-.34.31.44.44,0,0,1-.22-.07,2.52,2.52,0,0,0-1.7-.64,2.25,2.25,0,0,0-2.29,2.3v0A2.27,2.27,0,0,0,115.88,46a2.51,2.51,0,0,0,1.76-.68.31.31,0,0,1,.21-.09.32.32,0,0,1,.32.3.3.3,0,0,1-.11.23,3.14,3.14,0,0,1-2.2.82A2.87,2.87,0,0,1,112.89,43.72Z"/><path d="M121.06,41.21a.33.33,0,0,1,.33-.32h2.22a2.41,2.41,0,0,1,1.68.56,1.52,1.52,0,0,1,.46,1.11v0a1.67,1.67,0,0,1-1.58,1.63L125.64,46a.34.34,0,0,1,.11.24.35.35,0,0,1-.34.31.38.38,0,0,1-.31-.17l-1.67-2.05h-1.7v1.9a.34.34,0,0,1-.67,0Zm2.49,2.55c.89,0,1.52-.44,1.52-1.16v0c0-.69-.56-1.1-1.51-1.1h-1.83v2.28Z"/><path d="M128.71,44.16v-3a.34.34,0,0,1,.33-.32.33.33,0,0,1,.34.32v2.95A1.69,1.69,0,0,0,131.19,46,1.65,1.65,0,0,0,133,44.16v-3a.34.34,0,0,1,.67,0v2.94a2.47,2.47,0,0,1-4.94,0Z"/><path d="M136.41,46.24v0a.39.39,0,0,1,.12-.28l3.71-4.48h-3.43a.29.29,0,1,1,0-.57h4a.3.3,0,0,1,.31.27v0a.39.39,0,0,1-.12.28l-3.71,4.48h3.57a.29.29,0,1,1,0,.57h-4.17A.3.3,0,0,1,136.41,46.24Z"/></g><path d="M67.53,8.77v0A3.77,3.77,0,0,1,71.42,5a4.07,4.07,0,0,1,2.75.95.42.42,0,0,1,.18.33.44.44,0,0,1-.44.41.55.55,0,0,1-.29-.1,3.25,3.25,0,0,0-2.21-.83,2.93,2.93,0,0,0-3,3v0a3,3,0,0,0,3,3,3.26,3.26,0,0,0,2.29-.89.39.39,0,0,1,.27-.11.42.42,0,0,1,.42.39.39.39,0,0,1-.14.29,4.06,4.06,0,0,1-2.86,1.08A3.74,3.74,0,0,1,67.53,8.77Z"/><path d="M75,11.86l3.12-6.48A.56.56,0,0,1,78.68,5h0a.54.54,0,0,1,.54.36l3.13,6.47a.58.58,0,0,1,0,.21.4.4,0,0,1-.42.39.47.47,0,0,1-.43-.3l-.8-1.68H76.57l-.81,1.7a.42.42,0,0,1-.41.28.38.38,0,0,1-.4-.37A.41.41,0,0,1,75,11.86Zm5.44-2.14L78.68,6,76.91,9.72Z"/><path d="M83.26,11.53a.38.38,0,0,1-.17-.32.41.41,0,0,1,.42-.4.44.44,0,0,1,.27.09,3.62,3.62,0,0,0,2.43.87c1,0,1.71-.52,1.71-1.24v0c0-.67-.38-1.06-2-1.38S83.33,8.21,83.33,7V7c0-1.15,1.07-2,2.53-2a4.09,4.09,0,0,1,2.46.72.4.4,0,0,1-.23.73.4.4,0,0,1-.26-.08,3.38,3.38,0,0,0-2-.63c-1,0-1.64.52-1.64,1.18v0c0,.69.4,1.07,2.09,1.42s2.51,1,2.51,2.06v0c0,1.25-1.1,2.07-2.63,2.07A4.69,4.69,0,0,1,83.26,11.53Z"/><path d="M89.41,11.86l3.13-6.48A.56.56,0,0,1,93.09,5h0a.55.55,0,0,1,.54.36l3.12,6.47a.45.45,0,0,1,.06.21.4.4,0,0,1-.42.39.47.47,0,0,1-.43-.3l-.8-1.68H91l-.8,1.7a.42.42,0,0,1-.42.28.37.37,0,0,1-.39-.37A.49.49,0,0,1,89.41,11.86Zm5.45-2.14L93.09,6,91.32,9.72Z"/><path d="M100.71,5.52a.43.43,0,0,1,.43-.42h2.24c2.42,0,4.1,1.58,4.1,3.63v0c0,2.06-1.68,3.65-4.1,3.65h-2.24a.43.43,0,0,1-.43-.41Zm2.67,6.12a2.91,2.91,0,0,0,3.19-2.87v0a2.93,2.93,0,0,0-3.19-2.89h-1.8v5.78Z"/><path d="M108.75,12V5.52a.43.43,0,0,1,.43-.42H114a.39.39,0,0,1,.4.38.38.38,0,0,1-.4.37h-4.34v2.5h3.85a.38.38,0,1,1,0,.75h-3.85v2.55H114a.38.38,0,0,1,.39.38.37.37,0,0,1-.39.37h-4.84A.43.43,0,0,1,108.75,12Z"/><path d="M115.42,5.47a.42.42,0,0,1,.42-.42.44.44,0,0,1,.45.42v6.17h4a.39.39,0,0,1,.39.39.37.37,0,0,1-.39.37h-4.44a.42.42,0,0,1-.42-.41Z"/><path d="M67.51,17.88a1.84,1.84,0,0,1,1.89-1.8h9.66a1.64,1.64,0,1,1,0,3.27H71.3v3.48H78a1.64,1.64,0,1,1,0,3.27H71.3v4.67a1.9,1.9,0,0,1-3.79,0Z"/><path d="M81.85,25.43V17.74a1.9,1.9,0,0,1,3.79,0v7.59c0,2.66,1.41,4,3.72,4s3.72-1.33,3.72-3.92V17.74a1.9,1.9,0,0,1,3.8,0v7.57c0,5-2.93,7.38-7.57,7.38S81.85,30.24,81.85,25.43Z"/><path d="M103.28,19.4H99.63a1.66,1.66,0,1,1,0-3.32h11.09a1.66,1.66,0,1,1,0,3.32h-3.65V30.77a1.9,1.9,0,0,1-3.79,0Z"/><path d="M113.47,25.43V17.74a1.9,1.9,0,0,1,3.8,0v7.59c0,2.66,1.4,4,3.72,4s3.72-1.33,3.72-3.92V17.74a1.9,1.9,0,0,1,3.79,0v7.57c0,5-2.93,7.38-7.56,7.38S113.47,30.24,113.47,25.43Z"/><path d="M131.22,17.88a1.84,1.84,0,0,1,1.9-1.8h6a7.11,7.11,0,0,1,5,1.66,5,5,0,0,1,1.48,3.74v0a5,5,0,0,1-3.45,5l2.64,3a2,2,0,0,1,.61,1.37,1.72,1.72,0,0,1-1.8,1.66,2.3,2.3,0,0,1-1.87-.93l-3.69-4.44h-3v3.57a1.9,1.9,0,0,1-3.8,0ZM138.86,24c1.85,0,2.91-.93,2.91-2.31v-.05c0-1.54-1.14-2.33-3-2.33H135V24Z"/><path d="M146.77,24.3v0c0-4.65,3.87-8.46,9.19-8.46s9.14,3.76,9.14,8.41v.05c0,4.65-3.87,8.45-9.19,8.45S146.77,29,146.77,24.3Zm14.37,0v0a5.1,5.1,0,0,0-5.23-5.14,5,5,0,0,0-5.17,5.09v.05A5.1,5.1,0,0,0,156,29.4,5,5,0,0,0,161.14,24.3Z"/><path d="M160.76,36.7a.75.75,0,0,1-.76.73H68.23a.75.75,0,0,1-.77-.73h0a.75.75,0,0,1,.77-.73H160a.75.75,0,0,1,.76.73Z"/><path d="M67.34,43.72v0a2.89,2.89,0,0,1,3-2.9,3.27,3.27,0,0,1,2,.6.31.31,0,0,1,.13.25.32.32,0,0,1-.33.32.37.37,0,0,1-.21-.08,2.63,2.63,0,0,0-1.64-.51A2.25,2.25,0,0,0,68,43.68v0A2.22,2.22,0,0,0,70.38,46a2.82,2.82,0,0,0,1.71-.56V44.08H70.5a.29.29,0,1,1,0-.57h1.91a.33.33,0,0,1,.33.32v1.71a.44.44,0,0,1-.23.38,3.72,3.72,0,0,1-2.15.68A2.83,2.83,0,0,1,67.34,43.72Z"/><path d="M75.57,43.72v0a3,3,0,0,1,6,0v0a3,3,0,0,1-6,0Zm5.34,0v0a2.29,2.29,0,0,0-2.33-2.32,2.26,2.26,0,0,0-2.32,2.3v0A2.29,2.29,0,0,0,78.6,46,2.26,2.26,0,0,0,80.91,43.72Z"/><path d="M84.65,41.21a.33.33,0,0,1,.33-.32h1.73a2.89,2.89,0,0,1,3.15,2.79v0a2.9,2.9,0,0,1-3.15,2.81H85a.33.33,0,0,1-.33-.32Zm2.06,4.71a2.23,2.23,0,0,0,2.45-2.2v0a2.25,2.25,0,0,0-2.45-2.22H85.32v4.44Z"/><path d="M92.6,43.72v0a3,3,0,0,1,6,0v0a3,3,0,0,1-6,0Zm5.35,0v0a2.29,2.29,0,0,0-2.34-2.32,2.27,2.27,0,0,0-2.32,2.3v0a2.33,2.33,0,0,0,4.66,0Z"/><path d="M103.06,44.3l-2.2-2.92a.42.42,0,0,1-.08-.22.34.34,0,0,1,.35-.31.41.41,0,0,1,.32.19l2,2.68,2-2.68a.38.38,0,0,1,.31-.19.32.32,0,0,1,.33.31.54.54,0,0,1-.09.24l-2.2,2.89v1.94a.34.34,0,0,1-.67,0Z"/><path d="M112.89,43.72v0a2.9,2.9,0,0,1,3-2.9,3.12,3.12,0,0,1,2.11.73.32.32,0,0,1,.14.25.33.33,0,0,1-.34.31.44.44,0,0,1-.22-.07,2.52,2.52,0,0,0-1.7-.64,2.25,2.25,0,0,0-2.29,2.3v0A2.27,2.27,0,0,0,115.88,46a2.51,2.51,0,0,0,1.76-.68.31.31,0,0,1,.21-.09.32.32,0,0,1,.32.3.3.3,0,0,1-.11.23,3.14,3.14,0,0,1-2.2.82A2.87,2.87,0,0,1,112.89,43.72Z"/><path d="M121.06,41.21a.33.33,0,0,1,.33-.32h2.22a2.41,2.41,0,0,1,1.68.56,1.52,1.52,0,0,1,.46,1.11v0a1.67,1.67,0,0,1-1.58,1.63L125.64,46a.34.34,0,0,1,.11.24.35.35,0,0,1-.34.31.38.38,0,0,1-.31-.17l-1.67-2.05h-1.7v1.9a.34.34,0,0,1-.67,0Zm2.49,2.55c.89,0,1.52-.44,1.52-1.16v0c0-.69-.56-1.1-1.51-1.1h-1.83v2.28Z"/><path d="M128.71,44.16v-3a.34.34,0,0,1,.33-.32.33.33,0,0,1,.34.32v2.95A1.69,1.69,0,0,0,131.19,46,1.65,1.65,0,0,0,133,44.16v-3a.34.34,0,0,1,.67,0v2.94a2.47,2.47,0,0,1-4.94,0Z"/><path d="M136.41,46.24v0a.39.39,0,0,1,.12-.28l3.71-4.48h-3.43a.29.29,0,1,1,0-.57h4a.3.3,0,0,1,.31.27v0a.39.39,0,0,1-.12.28l-3.71,4.48h3.57a.29.29,0,1,1,0,.57h-4.17A.3.3,0,0,1,136.41,46.24Z"/><path d="M27.87,0C12.5,0,0,11.85,0,26.42S12.5,52.85,27.87,52.85a29,29,0,0,0,9-1.44h0a1.23,1.23,0,0,0,.89-1.16A1.26,1.26,0,0,0,36.51,49a1.3,1.3,0,0,0-.49.09h0a26.28,26.28,0,0,1-8.14,1.29c-13.94,0-25.28-10.75-25.28-24s11.34-24,25.28-24,25.27,10.75,25.27,24a23.44,23.44,0,0,1-8.89,18.23,1.22,1.22,0,0,0-.47.94,1.26,1.26,0,0,0,1.3,1.22,1.32,1.32,0,0,0,.78-.25h0a25.83,25.83,0,0,0,9.86-20.15C55.73,11.85,43.23,0,27.87,0Z"/><path d="M36.56,41.4a4.9,4.9,0,0,0,5-4.76V29.17a4.65,4.65,0,0,0,3.77-4.48,4.5,4.5,0,0,0-1.6-3.41L31.63,9.55l0,0-.24-.23-.12-.11h0a5,5,0,0,0-6.37,0l-.06.05-.32.3L12.09,21.19a5.1,5.1,0,0,0-.53.5l0,0a4.45,4.45,0,0,0-1.14,3,4.62,4.62,0,0,0,3.44,4.39l.09.2h.14v7.36a4.89,4.89,0,0,0,5,4.76h5.53V29.63a.73.73,0,0,1,.75-.71H30.4a.73.73,0,0,1,.75.71V41.4ZM30.4,26.46H25.34A3.26,3.26,0,0,0,22,29.63v9.31H19.06a2.37,2.37,0,0,1-2.42-2.3V26.82H15.11l-.17,0a2.17,2.17,0,0,1-2-2.11,2.09,2.09,0,0,1,.49-1.34l0,0a2.21,2.21,0,0,1,.28-.26L25.92,11.64H26l.38-.41a2.31,2.31,0,0,1,3.37,0l.39.41h0L41.93,23l.07.07a2.08,2.08,0,0,1,.76,1.59,2.19,2.19,0,0,1-2.25,2.13H39v9.82a2.36,2.36,0,0,1-2.42,2.3H33.74V29.63A3.26,3.26,0,0,0,30.4,26.46Z"/><path d="M42.3,46.28a1.23,1.23,0,1,0,1.29,1.23A1.26,1.26,0,0,0,42.3,46.28Z"/></g></g></svg>