<svg xmlns="http://www.w3.org/2000/svg" viewBox="0 0 141.13 39.71"><g id="Capa_2" data-name="Capa 2"><g id="Capa_1-2" data-name="Capa 1"><path d="M83.31,32.55v-9.2h3.55v9.11c0,2.62,1.31,4,3.47,4s3.48-1.31,3.48-3.87V23.35h3.54v9.09c0,4.87-2.74,7.27-7.06,7.27s-7-2.42-7-7.16M72.24,32a2.46,2.46,0,0,0,1.89-.85,2.71,2.71,0,0,0,.52-.89,3.21,3.21,0,0,0,0-2.12,2.71,2.71,0,0,0-.52-.89,2.46,2.46,0,0,0-1.89-.85H68.06V32Zm-7.76-8.65h8.16a6,6,0,0,1,2.43.48,5.8,5.8,0,0,1,1.86,1.27A5.49,5.49,0,0,1,78.12,27a6,6,0,0,1,.42,2.24,5.93,5.93,0,0,1-.85,3.11,5.29,5.29,0,0,1-2.37,2.11l3.24,5.11h-4.3L71.4,35H68.06v4.48H64.48Zm37.92,0h13.22l-7.89,13.05a.23.23,0,0,1-.06.07.17.17,0,0,1,.09,0h7.61v3.08H101.75l7.87-13.13a.18.18,0,0,1,.07-.09l-.12,0H102.4Zm-47,10.3a4.71,4.71,0,0,1-1.72,2l-.09.06-.09.05a4.88,4.88,0,0,1-1.78.61,4.76,4.76,0,0,1-5.43-4.24v0a1.6,1.6,0,0,1,0-.23h0v0c0-.11,0-.23,0-.34a2.81,2.81,0,0,1,0-.29v-.05a4.75,4.75,0,0,1,5-4.7,4.63,4.63,0,0,1,1.85.46l0,0,.18.09.12.07.09.06.19.12h0a4.79,4.79,0,0,1,1.42,1.58l.09.18h3.9l0-.18a8,8,0,0,0-.93-2h0l-.08-.12a8.35,8.35,0,0,0-8.25-3.51l-.34.05a8.21,8.21,0,0,0-6.43,5.17l-.06.17-.06.17a8.27,8.27,0,0,0-.4,2.82v.08a8.17,8.17,0,0,0,.82,3.38l0,.1.11.22c.05.09.1.18.16.27l0,0a8.23,8.23,0,0,0,6.48,3.94l.38,0a8.38,8.38,0,0,0,7.88-4.18l0-.06.09-.16a8.11,8.11,0,0,0,.59-1.46l.07-.25H55.39ZM97.84,10.28a4.63,4.63,0,0,1-5,4.84H88.47V9.55a4.45,4.45,0,0,1,4.69-4.19,4.63,4.63,0,0,1,4,2.25,5.1,5.1,0,0,1,.61,1.91,5.58,5.58,0,0,1,0,.72Zm3.77-.76h0A8.16,8.16,0,0,0,93.2,2.15,8.28,8.28,0,0,0,92,2.24a8.63,8.63,0,0,0-2.91.92,7.55,7.55,0,0,0-4.22,6.39v8.94h8c5.19,0,8.78-3.6,8.78-8.25v-.05C101.64,10,101.63,9.74,101.61,9.52Zm35.47-7.18-2.87,4.73L133.05,9a1,1,0,0,0-.08.16.26.26,0,0,0-.05-.16l-3.66-6.68h-4l5.73,10.15-3.66,6h4l1.91-3.13,1-1.64,2-3.32.94-1.55,4-6.51ZM52.88,12.56h2.88v2.56H50.9c-2.75-.08-4.69-1.82-4.69-4.51v0a4.78,4.78,0,0,1,4.79-5A4.71,4.71,0,0,1,55.18,8h4a8.55,8.55,0,0,0-16.6,2.59v0c0,4.5,3.47,7.76,8.32,7.84h8.28V9.71H52.88Zm24-2.11v0a4.86,4.86,0,0,0-4.84-5,4.79,4.79,0,0,0-4.8,5v.05a4.86,4.86,0,0,0,4.85,5A4.78,4.78,0,0,0,76.85,10.45Zm-13.31,0v0a8.5,8.5,0,0,1,17-.05v.05a8.5,8.5,0,0,1-17,0Zm55.72,0v0a4.86,4.86,0,0,0-4.84-5,4.78,4.78,0,0,0-4.8,5v.05a4.85,4.85,0,0,0,4.84,5A4.78,4.78,0,0,0,119.26,10.45Zm-13.31,0v0a8.5,8.5,0,0,1,17-.05v.05a8.27,8.27,0,0,1-8.52,8.26A8.18,8.18,0,0,1,106,10.45Z"/><path d="M27,5A15.85,15.85,0,0,0,8.43,1.69l5.25,5.25a8.85,8.85,0,0,1,8.91,2.31,9,9,0,0,1,2.34,8.91l5.32,5.31c3-5.84,2.1-13.18-3.23-18.51"/><path d="M23.07,20.85l-.49-.49-3-3L15.91,21l3.88,3.88-3.64,3.64L9.61,21.94C6,18.14,5.75,13.18,9.37,9.56l.07-.06A9.86,9.86,0,0,1,10.7,8.42l-5-5A15.71,15.71,0,0,0,4.43,4.61l-.07.07C-1.69,10.73-1.41,19.79,5,26.42H5L16.15,37.57,28,25.75h0Z"/></g></g></svg>