<svg id="b46be3c0-d81a-4ed9-8284-271f9e92cb4f" data-name="Capa 1" xmlns="http://www.w3.org/2000/svg" viewBox="0 0 141.18 39.67"  style="fill: white;">
    <g id="e7b8c142-a09b-49d1-86a9-5d8a5a6cc794" data-name="Capa 2">
        <g id="b6457a29-ed7a-47a8-8557-e8aa534e9c36" data-name="Capa 1-2">
            <path d="M83.31,32.55v-9.2h3.55v9.11c0,2.62,1.31,4,3.47,4s3.48-1.31,3.48-3.87V23.35h3.54v9.09c0,4.87-2.74,7.27-7.06,7.27s-7-2.42-7-7.16M72.24,32a2.45,2.45,0,0,0,1.89-.85,2.58,2.58,0,0,0,.52-.89,3.21,3.21,0,0,0,0-2.12,2.58,2.58,0,0,0-.52-.89,2.45,2.45,0,0,0-1.89-.85H68.06V32Zm-7.76-8.65h8.16a6,6,0,0,1,2.43.48,5.8,5.8,0,0,1,1.86,1.27A5.45,5.45,0,0,1,78.12,27a6.1,6.1,0,0,1,.42,2.24,5.87,5.87,0,0,1-.85,3.11,5.27,5.27,0,0,1-2.37,2.11l3.24,5.11h-4.3L71.4,35H68.06v4.48H64.48Zm37.92,0h13.22l-7.89,13-.06.07h7.7v3.08H101.75l7.87-13.13a.16.16,0,0,1,.07-.09H102.4Zm-47,10.3a4.7,4.7,0,0,1-1.72,2l-.09.06-.09,0a4.89,4.89,0,0,1-1.78.61,4.76,4.76,0,0,1-5.4-4l0-.22h0a.89.89,0,0,1,0-.23h0v-.68a4.75,4.75,0,0,1,4.79-4.71h.21a4.59,4.59,0,0,1,1.85.46h0l.18.09.12.07.09.06.19.12h0a4.68,4.68,0,0,1,1.42,1.58l.09.18h3.9V28.9a8.1,8.1,0,0,0-.93-2h0l-.08-.12a8.36,8.36,0,0,0-8.25-3.51l-.34.05a8.21,8.21,0,0,0-6.43,5.17l-.06.17-.06.17a8.16,8.16,0,0,0-.4,2.82v.08a8.24,8.24,0,0,0,.82,3.38v.1l.11.22c.05.09.1.18.16.27h0a8.23,8.23,0,0,0,6.48,3.94h.38a8.38,8.38,0,0,0,7.88-4.18V35.4l.09-.16a8.75,8.75,0,0,0,.59-1.46l.07-.25H55.39ZM97.84,10.28a4.64,4.64,0,0,1-4.4,4.85,4,4,0,0,1-.6,0H88.47V9.55a4.45,4.45,0,0,1,4.69-4.19,4.63,4.63,0,0,1,4,2.25,5,5,0,0,1,.61,1.91,4.33,4.33,0,0,1,0,.72Zm3.77-.76h0A8.16,8.16,0,0,0,93.2,2.15a8.08,8.08,0,0,0-1.2.09,8.53,8.53,0,0,0-2.91.92,7.55,7.55,0,0,0-4.22,6.39v8.94h8c5.19,0,8.78-3.6,8.78-8.25v-.05C101.64,10,101.63,9.74,101.61,9.52Zm35.47-7.18-2.87,4.73L133.05,9a.8.8,0,0,0-.08.16.3.3,0,0,0-.05-.16l-3.66-6.68h-4L131,12.47l-3.66,6h4l1.91-3.13,1-1.64,2-3.32.94-1.55,4-6.51ZM52.88,12.56h2.88v2.56H50.9c-2.75-.08-4.69-1.82-4.69-4.51h0a4.77,4.77,0,0,1,4.55-5H51A4.71,4.71,0,0,1,55.18,8h4a8.55,8.55,0,0,0-16.6,2.59h0c0,4.5,3.47,7.76,8.32,7.84h8.28V9.71h-6.3Zm24-2.11h0a4.86,4.86,0,0,0-4.72-5H72a4.78,4.78,0,0,0-4.8,4.78v.27a4.86,4.86,0,0,0,4.72,5h.13a4.79,4.79,0,0,0,4.77-4.79c0-.09,0-.17,0-.26Zm-13.31,0h0a8.5,8.5,0,0,1,17,0v0a8.5,8.5,0,0,1-17,0Zm55.72,0h0a4.86,4.86,0,0,0-4.72-5h-.12a4.78,4.78,0,0,0-4.8,4.76,1.92,1.92,0,0,0,0,.24v.05a4.86,4.86,0,0,0,4.7,5h.14a4.78,4.78,0,0,0,4.78-4.78,2.44,2.44,0,0,0,0-.27Zm-13.31,0h0a8.5,8.5,0,0,1,17,0v0a8.26,8.26,0,0,1-8.28,8.26h-.24A8.18,8.18,0,0,1,106,10.82v-.37Z" transform="translate(0 -0.04)"/>
            <path d="M27,5A15.85,15.85,0,0,0,8.43,1.69l5.25,5.25a8.83,8.83,0,0,1,8.91,2.31,9,9,0,0,1,2.34,8.91l5.32,5.31A15.73,15.73,0,0,0,27,5" transform="translate(0 -0.04)"/><path d="M23.07,20.85l-.49-.49-3-3L15.91,21l3.88,3.88-3.64,3.64L9.61,21.94C6,18.14,5.75,13.18,9.37,9.56l.07-.06A10,10,0,0,1,10.7,8.42l-5-5A15.83,15.83,0,0,0,4.43,4.61l-.07.07C-1.69,10.73-1.41,19.79,5,26.42H5L16.15,37.57,28,25.75h0Z" transform="translate(0 -0.04)"/>
        </g>
    </g>
</svg>